<svg width="25" height="24" viewBox="0 0 25 24" fill="none" xmlns="http://www.w3.org/2000/svg">
<g clip-path="url(#clip0)">
<path d="M4.97914 11.0097L12.8032 18.8338L20.6273 11.0097C21.3191 10.3179 21.7077 9.37973 21.7077 8.40145C21.7077 7.42317 21.3191 6.48496 20.6273 5.79321C20.2848 5.4507 19.8782 5.179 19.4307 4.99363C18.9831 4.80826 18.5035 4.71285 18.0191 4.71285C17.0408 4.71285 16.1026 5.10147 15.4109 5.79321L12.8032 8.40084L10.1956 5.79444C9.50211 5.11198 8.56702 4.7312 7.59403 4.73504C6.62105 4.73889 5.68899 5.12705 5.0009 5.81498C4.31281 6.50291 3.92443 7.43487 3.92035 8.40786C3.91628 9.38084 4.29684 10.316 4.97914 11.0097ZM11.934 4.05357L12.8032 4.92278L13.6724 4.05357C14.2424 3.47865 14.9202 3.02196 15.6671 2.70971C16.414 2.39747 17.2152 2.23582 18.0247 2.23405C18.8342 2.23227 19.6361 2.39041 20.3843 2.69938C21.1326 3.00836 21.8124 3.46207 22.3848 4.03449C22.9573 4.60691 23.411 5.28675 23.7199 6.03499C24.0289 6.78323 24.1871 7.58513 24.1853 8.39465C24.1835 9.20417 24.0219 10.0054 23.7096 10.7522C23.3974 11.4991 22.9407 12.177 22.3658 12.7469L13.6737 21.4402C13.5595 21.5545 13.4239 21.6452 13.2747 21.707C13.1254 21.7689 12.9654 21.8008 12.8039 21.8008C12.6423 21.8008 12.4823 21.7689 12.3331 21.707C12.1838 21.6452 12.0482 21.5545 11.934 21.4402L3.24072 12.7481C2.65799 12.18 2.19385 11.5019 1.87523 10.7531C1.55661 10.0042 1.38986 9.19955 1.38465 8.38576C1.37943 7.57196 1.53586 6.76523 1.84486 6.01237C2.15385 5.2595 2.60926 4.57548 3.18467 3.99999C3.76009 3.42449 4.44404 2.96899 5.19687 2.65988C5.94969 2.35078 6.7564 2.19424 7.57019 2.19934C8.38399 2.20444 9.18867 2.37108 9.93756 2.68959C10.6865 3.0081 11.3646 3.47214 11.9328 4.0548L11.934 4.05357Z" fill="#181725"/>
</g>
<defs>
<clipPath id="clip0">
<rect width="24" height="24" fill="white" transform="translate(0.284912)"/>
</clipPath>
</defs>
</svg>
