<svg width="18" height="18" viewBox="0 0 18 18" fill="none" xmlns="http://www.w3.org/2000/svg">
<path d="M17.8402 8.6123C17.8402 8.98813 17.6961 9.35144 17.4266 9.61452C17.1635 9.88386 16.8 10.0342 16.4241 10.0342H10.7595V15.6967C10.7595 16.0725 10.6091 16.4358 10.3397 16.6989C10.0765 16.962 9.71931 17.1123 9.34334 17.1123C8.96737 17.1123 8.60394 16.962 8.34076 16.6989C8.07132 16.4358 7.92093 16.0725 7.92093 15.6967V10.0342H2.25635C1.88039 10.0342 1.51695 9.88386 1.25377 9.61452C0.990597 9.35144 0.84021 8.98813 0.84021 8.6123C0.84021 8.23647 0.990597 7.87944 1.25377 7.61009C1.51695 7.34701 1.88039 7.19668 2.25635 7.19668H7.92093V1.53419C7.92093 1.15836 8.07132 0.795061 8.34076 0.53198C8.60394 0.262636 8.96737 0.112305 9.34334 0.112305C9.71931 0.112305 10.0765 0.262636 10.3397 0.53198C10.6091 0.795061 10.7595 1.15836 10.7595 1.53419V7.19668H16.4241C16.8 7.19668 17.1635 7.34701 17.4266 7.61009C17.6961 7.87944 17.8402 8.23647 17.8402 8.6123Z" fill="white"/>
</svg>
