<svg width="24" height="25" viewBox="0 0 24 25" fill="none" xmlns="http://www.w3.org/2000/svg">
<path d="M9 9.75407C9.53 10.2291 10.232 10.5181 11 10.5181H13C13.7381 10.5191 14.4505 10.2469 15 9.75407H9ZM9 9.75407C8.45054 10.2469 7.73814 10.5191 7 10.5181L9 9.75407ZM8.05 4.51807V4.46807H8H5C4.72153 4.46807 4.45445 4.57869 4.25754 4.7756C4.06063 4.97252 3.95 5.23959 3.95 5.51807V7.51807C3.95 7.79654 4.06063 8.06362 4.25754 8.26053C4.45445 8.45744 4.72153 8.56807 5 8.56807H7C7.27848 8.56807 7.54555 8.45744 7.74247 8.26053C7.93938 8.06362 8.05 7.79654 8.05 7.51807V4.51807ZM5.01 10.4681H4.96V10.5181V20.4831V20.5331H5.01H7H7.05V20.4831V15.5181C7.05 15.0009 7.25545 14.5049 7.62114 14.1392C7.98684 13.7735 8.48283 13.5681 9 13.5681H11C11.5172 13.5681 12.0132 13.7735 12.3789 14.1392C12.7446 14.5049 12.95 15.0009 12.95 15.5181V20.4831V20.5331H13H19.013H19.063V20.4831V10.5181V10.4681H19.013H17C16.2448 10.4681 15.5545 10.1839 15.0334 9.71683L15 9.68691L14.9666 9.71685C14.4263 10.2015 13.7259 10.4691 13.0001 10.4681H13H11C10.2448 10.4681 9.55454 10.1839 9.03337 9.71683L8.99999 9.68691L8.96662 9.71685C8.42634 10.2015 7.72586 10.4691 7.00007 10.4681H7H5.01ZM3.00817 9.69519C2.71173 9.42442 2.4737 9.09573 2.3089 8.72925C2.13767 8.34848 2.04942 7.93564 2.05 7.51814V7.51807V5.51807C2.05 4.73568 2.36081 3.98533 2.91404 3.4321C3.46727 2.87887 4.21761 2.56807 5 2.56807H19C19.7824 2.56807 20.5327 2.87887 21.086 3.4321C21.6392 3.98533 21.95 4.73568 21.95 5.51807V7.51807C21.95 8.3854 21.5764 9.1661 20.9795 9.70598L20.963 9.72087V9.74307V20.4831C20.963 21.0002 20.7576 21.4962 20.3919 21.8619C20.0262 22.2276 19.5302 22.4331 19.013 22.4331H11.373V22.4322L11.3637 22.4339C11.2438 22.4566 11.122 22.468 11 22.4681H9C8.87798 22.468 8.75621 22.4566 8.63629 22.4339L8.63646 22.4331H8.627H5.011C4.49383 22.4331 3.99784 22.2276 3.63214 21.8619C3.26645 21.4962 3.061 21.0002 3.061 20.4831V9.76307V9.64237L3.00817 9.69519ZM11.05 15.5181V15.4681H11H9H8.95V15.5181V20.4831V20.5331H9H11V20.4841H11.05V20.4831V20.4331V15.5181ZM14.05 4.51807V4.46807H14H10H9.95V4.51807V7.51807C9.95 7.79654 10.0606 8.06362 10.2575 8.26053C10.4545 8.45744 10.7215 8.56807 11 8.56807H13C13.2785 8.56807 13.5456 8.45744 13.7425 8.26053C13.9394 8.06362 14.05 7.79654 14.05 7.51807V4.51807ZM16 4.46807H15.95V4.51807V7.51807C15.95 7.79654 16.0606 8.06362 16.2575 8.26053C16.4545 8.45744 16.7215 8.56807 17 8.56807H19C19.2785 8.56807 19.5456 8.45744 19.7425 8.26053C19.9394 8.06362 20.05 7.79654 20.05 7.51807V5.51807C20.05 5.23959 19.9394 4.97252 19.7425 4.7756C19.5456 4.57869 19.2785 4.46807 19 4.46807H16ZM16 13.5681H17C17.252 13.5681 17.4936 13.6682 17.6718 13.8463C17.8499 14.0245 17.95 14.2661 17.95 14.5181V17.5181C17.95 17.77 17.8499 18.0117 17.6718 18.1898C17.4936 18.368 17.252 18.4681 17 18.4681H16C15.748 18.4681 15.5064 18.368 15.3283 18.1898C15.1501 18.0117 15.05 17.77 15.05 17.5181V14.5181C15.05 14.2661 15.1501 14.0245 15.3283 13.8463C15.5064 13.6682 15.748 13.5681 16 13.5681Z" fill="#53B175" stroke="white" stroke-width="0.1"/>
</svg>
