<svg width="25" height="25" viewBox="0 0 25 25" fill="none" xmlns="http://www.w3.org/2000/svg">
<path d="M8.9097 12.5881C9.05053 12.5356 9.20197 12.5083 9.35508 12.5078C9.50819 12.5074 9.65986 12.5337 9.80112 12.5853C9.94237 12.6368 10.0704 12.7126 10.1775 12.8081C10.2846 12.9036 10.3688 13.0168 10.4249 13.1412C10.481 13.2656 10.508 13.3985 10.5043 13.5321C10.5006 13.6657 10.4663 13.7974 10.4033 13.9192C10.3403 14.041 10.25 14.1506 10.1376 14.2415C10.0253 14.3323 9.89327 14.4025 9.74931 14.4481C8.98363 14.7114 8.32647 15.1699 7.86334 15.7638C7.40021 16.3577 7.15255 17.0596 7.15259 17.7781V19.5181C7.15259 19.7833 7.27327 20.0376 7.48808 20.2252C7.70289 20.4127 7.99424 20.5181 8.29803 20.5181H17.4616C17.7654 20.5181 18.0567 20.4127 18.2715 20.2252C18.4864 20.0376 18.607 19.7833 18.607 19.5181V17.8711C18.6072 17.1295 18.3492 16.4055 17.8672 15.7949C17.3853 15.1843 16.7021 14.716 15.9084 14.4521C15.7635 14.4082 15.6302 14.3394 15.5164 14.2497C15.4026 14.16 15.3106 14.0513 15.2458 13.9299C15.181 13.8086 15.1447 13.6772 15.1392 13.5434C15.1337 13.4096 15.159 13.2763 15.2136 13.1512C15.2682 13.0261 15.351 12.9119 15.4571 12.8152C15.5632 12.7186 15.6905 12.6416 15.8313 12.5887C15.9722 12.5358 16.1238 12.5081 16.2771 12.5074C16.4304 12.5066 16.5824 12.5326 16.7239 12.5841C17.9514 12.9922 19.0078 13.7164 19.7532 14.6606C20.4986 15.6047 20.8978 16.7244 20.8979 17.8711V19.5181C20.8979 20.3137 20.5359 21.0768 19.8915 21.6394C19.247 22.202 18.373 22.5181 17.4616 22.5181H8.29803C7.38666 22.5181 6.51261 22.202 5.86817 21.6394C5.22374 21.0768 4.86169 20.3137 4.86169 19.5181V17.7781C4.86185 16.6582 5.24803 15.5643 5.96998 14.6387C6.69194 13.7131 7.71626 12.9985 8.9097 12.5881ZM12.8798 2.51807C14.095 2.51807 15.2604 2.93949 16.1196 3.68964C16.9789 4.43978 17.4616 5.4572 17.4616 6.51807V8.51807C17.4616 9.57893 16.9789 10.5963 16.1196 11.3465C15.2604 12.0966 14.095 12.5181 12.8798 12.5181C11.6646 12.5181 10.4993 12.0966 9.64 11.3465C8.78075 10.5963 8.29803 9.57893 8.29803 8.51807V6.51807C8.29803 5.4572 8.78075 4.43978 9.64 3.68964C10.4993 2.93949 11.6646 2.51807 12.8798 2.51807ZM12.8798 4.51807C12.2722 4.51807 11.6895 4.72878 11.2599 5.10385C10.8303 5.47893 10.5889 5.98763 10.5889 6.51807V8.51807C10.5889 9.0485 10.8303 9.55721 11.2599 9.93228C11.6895 10.3074 12.2722 10.5181 12.8798 10.5181C13.4874 10.5181 14.0701 10.3074 14.4997 9.93228C14.9293 9.55721 15.1707 9.0485 15.1707 8.51807V6.51807C15.1707 5.98763 14.9293 5.47893 14.4997 5.10385C14.0701 4.72878 13.4874 4.51807 12.8798 4.51807Z" fill="#181725"/>
</svg>
